# xmcd CD database file
#
# Track frame offsets:
#	150
#	18749
#	39168
#	54524
#	72409
#	89152
#	105791
#	117622
#	129565
#	147859
#	159503
#	174712
#	185882
#	199394
#
# Disc length: 2893 seconds
#
# Revision: 0
# Processed by: cddbd v1.5.2PL0 Copyright (c) Steve Scherf et al.
# Submitted via: CDex 1.51
#
DISCID=d10b4b0e
DTITLE=Garage 3 - Blues zum Frühstück
DYEAR=2018
DGENRE=Blues
TTITLE0=yeah yeah yeah
TTITLE1=Danke schön es reicht
TTITLE2=Mach dein Ding
TTITLE3=Der Tag danach
TTITLE4=Ruhrpottblues
TTITLE5=Leichtes Leben
TTITLE6=Der Namen der Frauen
TTITLE7=Heul in mein Bier
TTITLE8=Schon wieder August
TTITLE9=Besuchen Sie den Opa
TTITLE10=Treues Herz und CBG
TTITLE11=Wer kann denn hier noch fahren
TTITLE12=Trotzdem haut es noch hin
TTITLE13=Blues zum Frühstück
EXTD=YEAR: 2018
EXTT0=
EXTT1=
EXTT2=
EXTT3=
EXTT4=
EXTT5=
EXTT6=
EXTT7=
EXTT8=
EXTT9=
EXTT10=
EXTT11=
EXTT12=
EXTT13=
PLAYORDER=
